<svg id="Layer_1" data-name="Layer 1" xmlns="http://www.w3.org/2000/svg" xmlns:xlink="http://www.w3.org/1999/xlink" viewBox="0 0 784.69 140.12"><defs><style>.cls-1,.cls-17,.cls-21,.cls-38,.cls-45{fill:none;}.cls-2{fill:#405965;}.cls-3{fill:#414042;}.cls-16,.cls-4{fill:#fff;}.cls-5{fill:#ead7b1;}.cls-16,.cls-20,.cls-22,.cls-44,.cls-5{fill-rule:evenodd;}.cls-6{clip-path:url(#clip-path);}.cls-7{fill:url(#linear-gradient);}.cls-8{clip-path:url(#clip-path-2);}.cls-9{fill:url(#linear-gradient-2);}.cls-10{clip-path:url(#clip-path-3);}.cls-11{fill:url(#linear-gradient-3);}.cls-12{clip-path:url(#clip-path-4);}.cls-13{clip-path:url(#clip-path-5);}.cls-14{clip-path:url(#clip-path-6);}.cls-15{fill:url(#radial-gradient);}.cls-17{stroke:#fff;}.cls-17,.cls-21,.cls-38,.cls-45{stroke-miterlimit:2.61;stroke-width:0;}.cls-18{clip-path:url(#clip-path-7);}.cls-19{fill:url(#radial-gradient-2);}.cls-20{fill:#caa52e;}.cls-21{stroke:#caa52e;}.cls-22,.cls-37{fill:#facb13;}.cls-23{clip-path:url(#clip-path-8);}.cls-24{clip-path:url(#clip-path-9);}.cls-25{fill:url(#linear-gradient-4);}.cls-26{clip-path:url(#clip-path-10);}.cls-27{clip-path:url(#clip-path-11);}.cls-28{fill:url(#linear-gradient-5);}.cls-29{clip-path:url(#clip-path-12);}.cls-30{clip-path:url(#clip-path-13);}.cls-31{fill:url(#linear-gradient-6);}.cls-32{clip-path:url(#clip-path-14);}.cls-33{clip-path:url(#clip-path-15);}.cls-34{fill:url(#linear-gradient-7);}.cls-35{clip-path:url(#clip-path-16);}.cls-36{fill:url(#linear-gradient-8);}.cls-38{stroke:#facb13;}.cls-39{clip-path:url(#clip-path-18);}.cls-40{clip-path:url(#clip-path-19);}.cls-41{clip-path:url(#clip-path-20);}.cls-42{clip-path:url(#clip-path-21);}.cls-43{clip-path:url(#clip-path-22);}.cls-44{fill:#ab9276;}.cls-45{stroke:#ab9276;}.cls-46{fill:url(#linear-gradient-9);}.cls-47{fill:url(#linear-gradient-10);}.cls-48{fill:#6e4e32;}.cls-49{fill:#00a651;}</style><clipPath id="clip-path"><path class="cls-1" d="M428.08,3.06,427,2.84c-1.83-.36-3.72-.74-5.52-1a.38.38,0,0,0-.29.07.35.35,0,0,0-.13.26L421,3.57v.86c-1.49-.2-2.9-.35-4.38-.51l-1.2-.12V1.39a.36.36,0,0,0-.32-.36c-2.12-.2-4.3-.38-6.48-.51a.37.37,0,0,0-.27.09.36.36,0,0,0-.11.26V3.26c-1.88-.07-3.81-.13-5.75-.17V.66a.35.35,0,0,0-.35-.36h-2.68l-3.79,0a.36.36,0,0,0-.36.36V3.11c-1.88,0-3.8.11-5.74.19V.9a.34.34,0,0,0-.12-.26.36.36,0,0,0-.27-.09c-2.11.13-4.29.31-6.47.52a.36.36,0,0,0-.33.36V3.85c-1.95.21-3.63.42-5.47.67V2.08a.33.33,0,0,0-.12-.27.36.36,0,0,0-.3-.08c-1.37.22-2.87.53-4.31.83-.85.18-1.65.35-2.44.5a.36.36,0,0,0-.29.35V6.05a.42.42,0,0,0,0,.16l1.06,2a.39.39,0,0,0,.28.18.3.3,0,0,0,.16,0,175.61,175.61,0,0,1,27.06-2.26c9.15,0,18.13,1.08,28.79,2.75h0a.41.41,0,0,0,.24-.08.36.36,0,0,0,.12-.27V8.22l.86-1.63.2-.38a.42.42,0,0,0,0-.16V3.41A.35.35,0,0,0,428.08,3.06Z"/></clipPath><linearGradient id="linear-gradient" x1="367.59" y1="4.22" x2="431.26" y2="4.22" gradientUnits="userSpaceOnUse"><stop offset="0" stop-color="#d8b56d"/><stop offset="0.51" stop-color="#edd9b1"/><stop offset="0.53" stop-color="#ecd8af"/><stop offset="1" stop-color="#d8b56b"/></linearGradient><clipPath id="clip-path-2"><path class="cls-1" d="M370.66,8.8a182.6,182.6,0,0,1,29.23-2.45A144.73,144.73,0,0,1,427.17,8.8l-.49.84-1.76,1.65a195.79,195.79,0,0,0-26.26-2.2,177,177,0,0,0-25.47,2.2Z"/></clipPath><linearGradient id="linear-gradient-2" x1="370.35" y1="8.68" x2="427.59" y2="8.68" gradientUnits="userSpaceOnUse"><stop offset="0" stop-color="#b79644"/><stop offset="0.51" stop-color="#c7a865"/><stop offset="1" stop-color="#b89642"/></linearGradient><clipPath id="clip-path-3"><path class="cls-1" d="M369.5,25.14s14.66-1.72,30.44-2.06a146.77,146.77,0,0,1,28.92,2.16c0,.08-6.16-14.17-6.16-14.17s-10.42-1.33-22.9-1.64a142.29,142.29,0,0,0-24.44,1.74Z"/></clipPath><linearGradient id="linear-gradient-3" x1="369.17" y1="17.31" x2="429.41" y2="17.31" gradientUnits="userSpaceOnUse"><stop offset="0" stop-color="#dbb872"/><stop offset="0.51" stop-color="#e0c28b"/><stop offset="1" stop-color="#dbb872"/></linearGradient><clipPath id="clip-path-4"><path class="cls-1" d="M400.07,23a228.44,228.44,0,0,0-37.84,3.28L347.78,44.64c22,14-.23,29.48-.23,50.52s44.05,29.28,51.39,43.3c7.34-14,51.38-22.26,51.38-43.3s-22.25-36.49-.22-50.52L435.64,26.27A189.67,189.67,0,0,0,400.08,23Z"/></clipPath><clipPath id="clip-path-5"><path class="cls-1" d="M364.64,30.26,353.82,43.81c4.11,3.42,7.17,7.72,7.8,13.31.75,6.65-2.19,13.34-4.69,19.37s-5,12.12-5,18.67a10.38,10.38,0,0,0,.48,3.13c2.47,8,14.95,14.59,21.93,18.29,5.51,2.93,11.2,5.69,16.53,8.93a48.13,48.13,0,0,1,8.21,5.84,45.86,45.86,0,0,1,7.88-5.84c5.33-3.24,11-6,16.53-8.93,7.46-4,22.41-11.63,22.41-21.42,0-6.55-2.5-12.71-5-18.67s-5.39-12.7-4.64-19.36c.63-5.59,3.71-9.75,7.82-13.17L433.2,30.22a186.41,186.41,0,0,0-33.12-2.89,223.36,223.36,0,0,0-35.44,2.93"/></clipPath><clipPath id="clip-path-6"><rect class="cls-1" x="349.68" y="25.15" width="99.49" height="108.62"/></clipPath><radialGradient id="radial-gradient" cx="394.61" cy="80.56" r="52.81" gradientTransform="translate(-0.61) scale(1.01 1)" gradientUnits="userSpaceOnUse"><stop offset="0" stop-color="#01a668"/><stop offset="0.39" stop-color="#029d5f"/><stop offset="1" stop-color="#038647"/></radialGradient><clipPath id="clip-path-7"><path class="cls-1" d="M370.53,74.93h56.78c.46-18.13-9-36.75-28.39-36.75S370.07,56.8,370.53,74.93"/></clipPath><radialGradient id="radial-gradient-2" cx="384.7" cy="69.38" r="38.11" gradientTransform="translate(-0.61) scale(1.01 1)" gradientUnits="userSpaceOnUse"><stop offset="0" stop-color="#e0f0e0"/><stop offset="0.14" stop-color="#d7ede1"/><stop offset="0.37" stop-color="#bee5e3"/><stop offset="0.65" stop-color="#96d7e7"/><stop offset="0.99" stop-color="#5ec5ed"/><stop offset="1" stop-color="#5cc4ed"/></radialGradient><clipPath id="clip-path-8"><path class="cls-1" d="M370.51,73.74c0,1.35.07,2.7.18,4,6.58.21,15.05-.18,15.26,1.06,0,.17.37.09.68,0s.58-.18.41,0c-3,3.33.72,9.09,4.52,12,11.84,9.18,7.51,14.33-2.07,16.41a26.46,26.46,0,0,0,9.43,1.66c10.93,0,18.68-5.86,23.3-14.2-7.08-2.8-19.07-4.27-21.86-10.57-.91-2.07,4.74-6,5.62-7.68,1.71-3.27-9.39-2.57-9.09-2.8l-26.18-.14c.09,0,0,.06-.2.17"/></clipPath><clipPath id="clip-path-9"><rect class="cls-1" x="367.89" y="71.85" width="56.85" height="39.42"/></clipPath><linearGradient id="linear-gradient-4" x1="368.3" y1="95.14" x2="423.8" y2="95.14" gradientUnits="userSpaceOnUse"><stop offset="0" stop-color="#fff"/><stop offset="0.18" stop-color="#fffbf6"/><stop offset="0.48" stop-color="#feefdd"/><stop offset="0.86" stop-color="#fcdbb5"/><stop offset="1" stop-color="#fbd3a4"/></linearGradient><clipPath id="clip-path-10"><path class="cls-1" d="M370.52,73.38c-1.47,7.78,1.91,19.86,9,27.39,5.79,6.18,14,8.84,17.36,8.36.66-.1,1.24.2,1.45-.2,7.28-13.72-19.27-29.08-.41-35.18,3.47-1.12-19.32-.18-27.36-.18"/></clipPath><clipPath id="clip-path-11"><rect class="cls-1" x="367.83" y="71.93" width="39.37" height="39.42"/></clipPath><linearGradient id="linear-gradient-5" x1="369.58" y1="91.07" x2="406.94" y2="91.07" gradientUnits="userSpaceOnUse"><stop offset="0" stop-color="#00aeb4"/><stop offset="0.18" stop-color="#09b0b6"/><stop offset="0.47" stop-color="#22b5ba"/><stop offset="0.84" stop-color="#4abec2"/><stop offset="1" stop-color="#5ec2c6"/></linearGradient><clipPath id="clip-path-12"><path class="cls-1" d="M423.88,57.17c-6.71.07-5.89,8-10.52,8.53-1.1.12-4-.94-5.93-1.25-2.6-.41-7.7,5.83-8.81,9.1h28.71a46.25,46.25,0,0,0-2.93-16.34,2.63,2.63,0,0,0-.49,0Z"/></clipPath><clipPath id="clip-path-13"><path class="cls-1" d="M423.88,57.17c-6.71.07-6.09,7.91-10.73,8.39-1.09.12-3.82-.8-5.72-1.11-2.6-.41-7.7,5.83-8.81,9.1h28.71a46.25,46.25,0,0,0-2.93-16.34,2.63,2.63,0,0,0-.49,0Z"/></clipPath><linearGradient id="linear-gradient-6" x1="413.15" y1="56.08" x2="413.15" y2="73.44" gradientUnits="userSpaceOnUse"><stop offset="0" stop-color="#19a576"/><stop offset="0.33" stop-color="#149d6d"/><stop offset="0.87" stop-color="#068654"/><stop offset="1" stop-color="#027f4d"/></linearGradient><clipPath id="clip-path-14"><path class="cls-1" d="M400.62,89.36c4.66,4.87,13.2,5.51,19.48,8.76,4.77-6.58,7.18-15.38,7.22-24.22l-28.57-.33c-2.6,4.05-4,9.65,1.87,15.79"/></clipPath><clipPath id="clip-path-15"><rect class="cls-1" x="392.39" y="72.62" width="39.08" height="28.03"/></clipPath><linearGradient id="linear-gradient-7" x1="394.1" y1="87.61" x2="427.94" y2="87.61" gradientUnits="userSpaceOnUse"><stop offset="0" stop-color="#e9b68b"/><stop offset="0.3" stop-color="#e4af82"/><stop offset="0.8" stop-color="#d69c69"/><stop offset="1" stop-color="#cf935d"/></linearGradient><clipPath id="clip-path-16"><path class="cls-1" d="M412.2,73h15.12a49.51,49.51,0,0,0-.48-6.22c-1.47-.19-3.71-.74-5.28-.92l-.29,0c-2.58,0-4.17,4.13-9.07,7.16"/></clipPath><linearGradient id="linear-gradient-8" x1="421.23" y1="65.82" x2="421.23" y2="73.59" xlink:href="#linear-gradient-6"/><clipPath id="clip-path-18"><path class="cls-1" d="M385.75,51.68a.58.58,0,0,0,.59.58.58.58,0,1,0,0-1.16.58.58,0,0,0-.59.58"/></clipPath><clipPath id="clip-path-19"><polygon class="cls-1" points="385.17 57.89 384.68 65.86 388.1 65.86 387.6 57.89 385.17 57.89"/></clipPath><clipPath id="clip-path-20"><rect class="cls-1" x="384.27" y="56.42" width="4.18" height="1.37"/></clipPath><clipPath id="clip-path-21"><polygon class="cls-1" points="389.28 60.75 389.28 61.89 388.12 61.89 388.12 60.75 386.96 60.75 386.96 61.89 385.81 61.89 385.81 60.75 384.65 60.75 384.65 61.89 383.5 61.89 383.5 60.75 382.34 60.75 382.34 72.76 390.43 72.76 390.43 61.89 390.43 60.75 389.28 60.75"/></clipPath><clipPath id="clip-path-22"><path class="cls-1" d="M384.42,53.86v.2h3.88v-.2c0-.79-.87-1.44-1.94-1.44s-1.94.65-1.94,1.44"/></clipPath><linearGradient id="linear-gradient-9" x1="382.3" y1="66.73" x2="390.71" y2="66.73" gradientUnits="userSpaceOnUse"><stop offset="0" stop-color="#dbdad9"/><stop offset="0.35" stop-color="#e2e2e2"/><stop offset="0.92" stop-color="#f7f9fb"/><stop offset="1" stop-color="#fafdff"/></linearGradient><linearGradient id="linear-gradient-10" x1="384.46" y1="55.6" x2="388.74" y2="55.6" xlink:href="#linear-gradient-9"/></defs><path class="cls-2" d="M471.43,46.65V46l4.31-5.35h.66a13.28,13.28,0,0,0,8,3.47c2.25,0,3.7-.7,3.7-1.87,0-1.65-2.06-1.79-5.11-2.63-4.69-1.32-10.23-4-10.23-9.95,0-5.59,5-9.44,12.25-9.44,5.16,0,9.85,2,12.15,4.56v.65l-4.36,5.17h-.66a10.79,10.79,0,0,0-6.94-3.1c-1.79,0-3,.66-3,1.74,0,1.5,2.11,2.2,4.18,2.81,5.25,1.5,11.21,3.29,11.21,10.19,0,6.33-5.91,9.62-12.72,9.62C479.17,51.86,474.19,49.7,471.43,46.65Z"/><path class="cls-2" d="M513.48,28.3v4.22h10.61v7H513.48v4.23h14.08v7.5H504.18V20.79h23.24V28.3Z"/><path class="cls-2" d="M532.06,36c0-9.06,7.32-15.82,17-15.82a16.61,16.61,0,0,1,12.86,5.87v.66l-5.63,4.78h-.66a9.08,9.08,0,0,0-6.61-3,7.46,7.46,0,1,0,0,14.92,9.08,9.08,0,0,0,6.61-3h.66l5.63,4.78V46a16.57,16.57,0,0,1-13,5.87C539.43,51.86,532.06,45.1,532.06,36Z"/><path class="cls-2" d="M594.49,50.59l-.43.7h-9.24L579,40.59h-2.2v10.7h-9.3V20.79h14c8,0,12.35,3.94,12.35,10.18,0,4-2.26,6.76-5.59,8.31Zm-17.65-16.1h4.32a2.94,2.94,0,0,0,3.23-3,3.06,3.06,0,0,0-3.23-3.19h-4.32Z"/><path class="cls-2" d="M610,28.3v4.22h10.61v7H610v4.23h14.08v7.5H600.68V20.79h23.23V28.3Z"/><path class="cls-2" d="M647,51.29h-9.29v-23h-9.29V20.79h27.87V28.3H647Z"/><path class="cls-2" d="M688.87,50.59l-.43.7H679l-1.78-4.59H666.24l-1.87,4.59h-9.06l-.42-.7,14-29.8h5.91Zm-14-10-3-7.79-3.2,7.79Z"/><path class="cls-2" d="M720.59,50.59l-.42.7h-9.25l-5.77-10.7h-2.21v10.7h-9.29V20.79h14c8,0,12.34,3.94,12.34,10.18,0,4-2.25,6.76-5.58,8.31Zm-17.65-16.1h4.32a2.94,2.94,0,0,0,3.24-3,3.06,3.06,0,0,0-3.24-3.19h-4.32Z"/><path class="cls-2" d="M736.08,20.79v30.5h-9.29V20.79Z"/><path class="cls-2" d="M774.85,50.59l-.43.7h-9.48l-1.78-4.59H752.22l-1.88,4.59h-9.05l-.43-.7,14-29.8h5.91Zm-14-10-3-7.79-3.19,7.79Z"/><path class="cls-2" d="M503.72,79.17c0,9.2-6.15,15.3-16.15,15.3H473.35V64h14.22C497.57,64,503.72,70.07,503.72,79.17Zm-9.48,0c0-5-3-7.75-7-7.75h-4.56V87h4.56C491.28,87,494.24,84.19,494.24,79.22Z"/><path class="cls-2" d="M508.5,79.22c0-9.06,7.32-15.82,17-15.82s17,6.76,17,15.82S535.26,95,525.54,95,508.5,88.28,508.5,79.22Zm24.6,0a7.56,7.56,0,1,0-7.56,7.46A7.35,7.35,0,0,0,533.1,79.22Z"/><path class="cls-2" d="M575.05,94.47h-9.29v-23h-9.29V64h27.88v7.51h-9.3Z"/><path class="cls-2" d="M598.66,64V80.67c0,3.66,2.25,6.11,5.59,6.11s5.58-2.45,5.58-6.11V64H619V80.11c0,9-5.91,14.93-14.73,14.93s-14.88-6-14.88-14.93V64Z"/><path class="cls-2" d="M653.43,93.77l-.42.7h-9.25L638,83.77h-2.21v10.7h-9.29V64h14c8,0,12.34,3.95,12.34,10.19,0,4-2.25,6.76-5.58,8.31Zm-17.65-16.1h4.32a2.94,2.94,0,0,0,3.24-3,3.07,3.07,0,0,0-3.24-3.2h-4.32Z"/><path class="cls-2" d="M668.92,64V94.47h-9.29V64Z"/><path class="cls-2" d="M675,89.83v-.66l4.32-5.35H680a13.28,13.28,0,0,0,8,3.47c2.26,0,3.71-.7,3.71-1.88,0-1.64-2.06-1.78-5.11-2.62-4.7-1.32-10.24-4-10.24-10,0-5.58,5-9.43,12.25-9.43,5.17,0,9.86,2,12.16,4.55v.66l-4.36,5.16h-.66a10.84,10.84,0,0,0-7-3.09c-1.78,0-3,.65-3,1.73,0,1.5,2.12,2.21,4.18,2.82,5.26,1.5,11.22,3.28,11.22,10.18,0,6.34-5.91,9.63-12.72,9.63C682.72,95,677.74,92.88,675,89.83Z"/><path class="cls-2" d="M735.47,94.47l-1.64-13.65L728,94.47h-5.35l-5.82-13.75-1.65,13.75H706L710.64,64h5.63l9,19.06L733.78,64h5.63l4.65,30.51Z"/><path class="cls-2" d="M748.28,79.22c0-9.06,7.32-15.82,17-15.82s17,6.76,17,15.82S775,95,765.32,95,748.28,88.28,748.28,79.22Zm24.6,0a7.56,7.56,0,1,0-7.56,7.46A7.35,7.35,0,0,0,772.88,79.22Z"/><path class="cls-3" d="M485.65,113.49a5.84,5.84,0,0,1-6.08,5.87,6,6,0,1,1,0-12,6.19,6.19,0,0,1,4.89,2.23v.19l-1.73,1.46h-.2a3.8,3.8,0,0,0-2.94-1.37,3.5,3.5,0,0,0,.05,7,3.17,3.17,0,0,0,3.23-2.33h-3.26v-2.05h5.81l.2.17A8.59,8.59,0,0,1,485.65,113.49Z"/><path class="cls-3" d="M487.38,113.35a6.36,6.36,0,1,1,6.35,6A6,6,0,0,1,487.38,113.35Zm9.86,0a3.52,3.52,0,1,0-3.51,3.49A3.42,3.42,0,0,0,497.24,113.35Z"/><path class="cls-3" d="M513.79,107.73l-5,11.41h-2.26l-3.63-8.27c-.28-.66-.46-.91-.69-1a.77.77,0,0,0-.57,0l-.18-.09L501,108l.07-.2a2.42,2.42,0,0,1,1.5-.42,2.76,2.76,0,0,1,2.73,2.07l2.42,5.93,3.23-7.79h2.77Z"/><path class="cls-3" d="M518.73,109.83v2.41h4.34v2.18h-4.34v2.44h5.66v2.28H516V107.55h8.44v2.28Z"/><path class="cls-3" d="M537.35,118.73l-.09.2a2.73,2.73,0,0,1-1.57.43c-1.69,0-2.37-1-3.12-2.46-.37-.74-1-2.11-1.75-2.11h-.91v4.35h-2.78V107.55h5c2.94,0,4.49,1.41,4.49,3.69a3.29,3.29,0,0,1-2.4,3.25,3.48,3.48,0,0,1,.67,1c.34.73.66,1.39,1.27,1.39a1,1,0,0,0,.46-.13l.18.09Zm-5.15-5.85a1.48,1.48,0,0,0,1.64-1.49,1.52,1.52,0,0,0-1.64-1.56h-2.29v3Z"/><path class="cls-3" d="M550.12,107.55v11.59h-2l-5.55-6.92v6.92h-2.78V107.55h2l5.57,6.94v-6.94Z"/><path class="cls-3" d="M552.74,113.35a6.36,6.36,0,1,1,6.35,6A6,6,0,0,1,552.74,113.35Zm9.87,0a3.52,3.52,0,1,0-3.52,3.49A3.43,3.43,0,0,0,562.61,113.35Z"/><path class="cls-3" d="M583.88,113.33c0,3.5-2.37,5.81-6.1,5.81H572.7V107.55h5.08C581.51,107.55,583.88,109.87,583.88,113.33Zm-2.85,0a3.22,3.22,0,0,0-3.36-3.52h-2.19v7h2.19A3.21,3.21,0,0,0,581,113.35Z"/><path class="cls-3" d="M585.82,113.35a6.36,6.36,0,1,1,6.35,6A6,6,0,0,1,585.82,113.35Zm9.87,0a3.52,3.52,0,1,0-3.52,3.49A3.42,3.42,0,0,0,595.69,113.35Z"/><path class="cls-3" d="M608.56,109.83v2.41h4.34v2.18h-4.34v2.44h5.66v2.28h-8.44V107.55h8.44v2.28Z"/><path class="cls-3" d="M616.18,117.36v-.25l1.28-1.53h.2a4.39,4.39,0,0,0,3.08,1.42c1,0,1.7-.46,1.7-1.14,0-.84-1.07-1.1-2.36-1.55-1.57-.53-3.49-1.3-3.49-3.53s1.94-3.44,4.33-3.44a5.2,5.2,0,0,1,4.12,1.73v.26l-1.28,1.45h-.23a3.48,3.48,0,0,0-2.55-1.2c-.88,0-1.52.38-1.52,1s.82,1,1.73,1.39c1.89.66,4.1,1.37,4.1,3.83s-2,3.52-4.47,3.52A5.8,5.8,0,0,1,616.18,117.36Z"/><path class="cls-3" d="M633.05,109.83v9.31h-2.78v-9.31h-3.61v-2.28h10v2.28Z"/><path class="cls-3" d="M649.28,118.79l-.11.19a2.89,2.89,0,0,1-1.51.38,2.43,2.43,0,0,1-1.55-.48,4.83,4.83,0,0,1-1.22-1.77h-4.83l-.8,2h-2.93l5-11.59h2.41l3.71,8.31c.35.8.59,1,.91,1a.7.7,0,0,0,.39-.13l.16.09Zm-8.45-3.61h3.3L642.48,111Z"/><path class="cls-3" d="M662.51,113.33c0,3.5-2.37,5.81-6.1,5.81h-5.08V107.55h5.08C660.14,107.55,662.51,109.87,662.51,113.33Zm-2.85,0a3.21,3.21,0,0,0-3.35-3.52h-2.2v7h2.2A3.21,3.21,0,0,0,659.66,113.35Z"/><path class="cls-3" d="M664.46,113.35a6.36,6.36,0,1,1,6.35,6A6,6,0,0,1,664.46,113.35Zm9.86,0a3.52,3.52,0,1,0-3.51,3.49A3.42,3.42,0,0,0,674.32,113.35Z"/><path class="cls-3" d="M695.6,113.33c0,3.5-2.38,5.81-6.1,5.81h-5.09V107.55h5.09C693.22,107.55,695.6,109.87,695.6,113.33Zm-2.86,0a3.21,3.21,0,0,0-3.35-3.52h-2.2v7h2.2A3.21,3.21,0,0,0,692.74,113.35Z"/><path class="cls-3" d="M697.54,113.35a6.36,6.36,0,1,1,6.35,6A6,6,0,0,1,697.54,113.35Zm9.86,0a3.52,3.52,0,1,0-3.51,3.49A3.42,3.42,0,0,0,707.4,113.35Z"/><path class="cls-3" d="M719.65,113.35a3.39,3.39,0,0,0,3.45,3.49,3.8,3.8,0,0,0,2.94-1.37h.19L728,116.9v.19a6.2,6.2,0,0,1-4.89,2.27,6,6,0,1,1,0-12A6.21,6.21,0,0,1,728,109.6v.2l-1.72,1.42H726a3.8,3.8,0,0,0-2.94-1.37A3.39,3.39,0,0,0,719.65,113.35Z"/><path class="cls-3" d="M733.15,109.83v2.41h4.34v2.18h-4.34v2.44h5.66v2.28h-8.44V107.55h8.44v2.28Z"/><path class="cls-3" d="M753.25,118.79l-.1.19a2.92,2.92,0,0,1-1.52.38,2.45,2.45,0,0,1-1.55-.48,4.7,4.7,0,0,1-1.21-1.77H744l-.8,2H740.3l5-11.59h2.41l3.71,8.31c.36.8.59,1,.91,1a.7.7,0,0,0,.39-.13l.16.09Zm-8.45-3.61h3.3L746.46,111Z"/><path class="cls-3" d="M765.52,118.73l-.09.2a2.72,2.72,0,0,1-1.56.43c-1.7,0-2.38-1-3.13-2.46-.37-.74-1-2.11-1.74-2.11h-.91v4.35H755.3V107.55h5.05c2.94,0,4.5,1.41,4.5,3.69a3.3,3.3,0,0,1-2.41,3.25,3.7,3.7,0,0,1,.68,1c.34.73.66,1.39,1.26,1.39a1.12,1.12,0,0,0,.47-.13l.17.09Zm-5.15-5.85a1.48,1.48,0,0,0,1.64-1.49,1.52,1.52,0,0,0-1.64-1.56h-2.28v3Z"/><path class="cls-3" d="M779.65,118.79l-.11.19a2.89,2.89,0,0,1-1.51.38,2.46,2.46,0,0,1-1.56-.48,4.94,4.94,0,0,1-1.21-1.77h-4.83l-.81,2H766.7l5-11.59h2.41l3.71,8.31c.35.8.59,1,.91,1a.77.77,0,0,0,.39-.13l.16.09Zm-8-12.27-.61-1v-.2l3.82-2.39h.19l1,1.68v.2l-4.25,1.75Zm-.47,8.66h3.3L772.85,111Z"/><path class="cls-4" d="M441.43,57.77c.62-5.56,4.56-9.38,9.11-12.27l.81-.52-15.2-19.3-.32-.06q-2.73-.51-5.46-.95c-5.54-.75-9.47-1.24-12.9-1.58l-2.82-.23h-.09l-.85-.06-.23,0h-.22c-2.1-.14-4.19-.24-6.29-.31h0l-.75,0h-.63c-7.68-.17-14.48.1-19.31.39h0c-1.68.1-12.5,1.18-14.52,1.42l-.33,0c-2.46.34-7.51,1.12-9.35,1.41L346.86,45l.81.52c4.55,2.89,8.48,6.71,9.11,12.27s-2.33,11.8-4.39,16.77C349.62,81.2,347,87.78,347,95.1a15.42,15.42,0,0,0,.71,4.62c1.51,4.88,5.26,8.8,9.22,11.91A100.54,100.54,0,0,0,372.12,121c5.4,2.86,11,5.57,16.19,8.74,3.48,2.12,8.1,5.24,10,8.9l.78,1.49.78-1.49c1.92-3.66,6.54-6.78,10-8.9,5.21-3.17,10.8-5.88,16.19-8.74a100.64,100.64,0,0,0,15.16-9.36c3.95-3.11,7.71-7,9.22-11.91a15.42,15.42,0,0,0,.71-4.62c0-7.32-2.58-13.9-5.35-20.56C443.76,69.57,440.81,63.23,441.43,57.77Z"/><polygon class="cls-5" points="417.7 3.68 420.76 4.15 420.79 2.3 417.7 3.68"/><polygon class="cls-5" points="390.3 1.22 390.27 3.01 392.05 2.9 390.3 1.22"/><polygon class="cls-5" points="406.12 2.87 407.9 2.99 407.87 1.19 406.12 2.87"/><g class="cls-6"><rect class="cls-7" x="367.59" y="-1.99" width="63.66" height="12.43"/></g><g class="cls-8"><rect class="cls-9" x="370.35" y="6.07" width="57.24" height="5.22"/></g><g class="cls-10"><rect class="cls-11" x="369.17" y="8.9" width="60.24" height="16.82"/></g><path class="cls-5" d="M403.1,22.79l-8.84.12a31.28,31.28,0,0,1,.57-5A6,6,0,0,1,397,14.76a3.74,3.74,0,0,1,3.2-.49,4.37,4.37,0,0,1,2.47,2.13A9.62,9.62,0,0,1,403.85,20a10.87,10.87,0,0,1,0,2.85Z"/><path class="cls-5" d="M412.29,11.88c-1.41.08-2.68,1-2.58,2.11s.77,6.49.77,6.49l5.68.41-1-7.33S413.7,11.8,412.29,11.88Z"/><g class="cls-13"><g class="cls-14"><rect class="cls-15" x="348.75" y="25.15" width="101.57" height="110.81"/></g></g><path class="cls-1" d="M364.64,30.26,353.82,43.81c4.11,3.42,7.17,7.72,7.8,13.31.75,6.65-2.19,13.34-4.69,19.37s-5,12.12-5,18.67a10.38,10.38,0,0,0,.48,3.13c2.47,8,14.95,14.59,21.93,18.29,5.51,2.93,11.2,5.69,16.53,8.93a47.68,47.68,0,0,1,8.05,5.94,47.21,47.21,0,0,1,8-5.94c5.33-3.24,11-6,16.53-8.93,7.46-4,22.41-11.63,22.41-21.42,0-6.55-2.5-12.71-5-18.67s-5.45-12.72-4.7-19.37c.63-5.59,3.77-9.74,7.88-13.16L433.2,30.22a186.41,186.41,0,0,0-33.12-2.89,223.36,223.36,0,0,0-35.44,2.93"/><polygon class="cls-16" points="366.63 48.49 365.74 51.34 362.85 51.34 365.19 53.1 364.29 55.95 366.63 54.18 368.98 55.95 368.07 53.1 370.42 51.34 367.52 51.34 366.63 48.49"/><polygon class="cls-17" points="366.63 48.49 365.74 51.34 362.85 51.34 365.19 53.1 364.29 55.95 366.63 54.18 368.98 55.95 368.07 53.1 370.42 51.34 367.52 51.34 366.63 48.49"/><polygon class="cls-16" points="364.2 67.91 363.31 70.77 360.41 70.76 362.76 72.52 361.86 75.38 364.2 73.61 366.54 75.38 365.63 72.52 367.98 70.76 365.08 70.77 364.2 67.91"/><polygon class="cls-17" points="364.2 67.91 363.31 70.77 360.41 70.76 362.76 72.52 361.86 75.38 364.2 73.61 366.54 75.38 365.63 72.52 367.98 70.76 365.08 70.77 364.2 67.91"/><polygon class="cls-16" points="361.04 85.31 360.15 88.17 357.25 88.17 359.6 89.93 358.7 92.78 361.04 91.01 363.38 92.78 362.48 89.93 364.83 88.17 361.93 88.17 361.04 85.31"/><polygon class="cls-17" points="361.04 85.31 360.15 88.17 357.25 88.17 359.6 89.93 358.7 92.78 361.04 91.01 363.38 92.78 362.48 89.93 364.83 88.17 361.93 88.17 361.04 85.31"/><polygon class="cls-16" points="398.75 115.6 397.86 118.46 394.96 118.45 397.31 120.21 396.4 123.07 398.75 121.3 401.08 123.07 400.19 120.21 402.53 118.45 399.64 118.46 398.75 115.6"/><polygon class="cls-17" points="398.75 115.6 397.86 118.46 394.96 118.45 397.31 120.21 396.4 123.07 398.75 121.3 401.08 123.07 400.19 120.21 402.53 118.45 399.64 118.46 398.75 115.6"/><polygon class="cls-16" points="416.21 108.54 415.32 111.4 412.43 111.39 414.77 113.15 413.87 116 416.21 114.24 418.55 116 417.65 113.15 420 111.39 417.11 111.4 416.21 108.54"/><polygon class="cls-17" points="416.21 108.54 415.32 111.4 412.43 111.39 414.77 113.15 413.87 116 416.21 114.24 418.55 116 417.65 113.15 420 111.39 417.11 111.4 416.21 108.54"/><polygon class="cls-16" points="381.11 108.54 382 111.4 384.9 111.39 382.55 113.15 383.45 116 381.11 114.24 378.77 116 379.67 113.15 377.32 111.39 380.22 111.4 381.11 108.54"/><polygon class="cls-17" points="381.11 108.54 382 111.4 384.9 111.39 382.55 113.15 383.45 116 381.11 114.24 378.77 116 379.67 113.15 377.32 111.39 380.22 111.4 381.11 108.54"/><polygon class="cls-16" points="367.22 99.26 368.11 102.12 371.01 102.11 368.66 103.87 369.56 106.73 367.22 104.96 364.88 106.73 365.78 103.87 363.43 102.11 366.33 102.12 367.22 99.26"/><polygon class="cls-17" points="367.22 99.26 368.11 102.12 371.01 102.11 368.66 103.87 369.56 106.73 367.22 104.96 364.88 106.73 365.78 103.87 363.43 102.11 366.33 102.12 367.22 99.26"/><g class="cls-18"><rect class="cls-19" x="345.73" y="37.09" width="87.53" height="64.59"/></g><path class="cls-20" d="M370.52,73h16v.68h-16v-.15h0V73"/><path class="cls-21" d="M370.52,73h16v.68h-16v-.15h0Z"/><path class="cls-20" d="M370.66,70l15.91,3.11-.13.67-15.83-3.1c0-.23,0-.46.05-.68"/><path class="cls-21" d="M370.66,70l15.91,3.11-.13.67-15.83-3.1C370.63,70.4,370.64,70.17,370.66,70Z"/><path class="cls-20" d="M371,66.72l15.64,6.37-.27.63-15.46-6.3c0-.23.06-.46.09-.7"/><path class="cls-21" d="M371,66.72l15.64,6.37-.27.63-15.46-6.3C370.94,67.19,371,67,371,66.72Z"/><path class="cls-20" d="M371.64,63.24l15.07,9.9-.38.56L371.49,64l.15-.72"/><path class="cls-21" d="M371.64,63.24l15.07,9.9-.38.56L371.49,64Z"/><path class="cls-20" d="M372.68,59.36,386.76,73.2l-.48.48L372.46,60.1c.07-.25.15-.49.22-.74"/><path class="cls-21" d="M372.68,59.36,386.76,73.2l-.48.48L372.46,60.1C372.53,59.85,372.61,59.61,372.68,59.36Z"/><path class="cls-20" d="M374.36,55,386.8,73.26l-.57.38L374,55.73l.33-.74"/><path class="cls-21" d="M374.36,55,386.8,73.26l-.57.38L374,55.73Z"/><path class="cls-20" d="M377,50.16l9.81,23.17-.63.26-9.63-22.73.45-.7"/><path class="cls-21" d="M377,50.16l9.81,23.17-.63.26-9.63-22.73Z"/><path class="cls-20" d="M381.07,45.26l5.77,28.15-.67.13-5.69-27.7c.19-.2.39-.39.59-.58"/><path class="cls-21" d="M381.07,45.26l5.77,28.15-.67.13-5.69-27.7C380.67,45.64,380.87,45.45,381.07,45.26Z"/><path class="cls-20" d="M386.71,41.12l.13,32.37h-.69l-.12-32,.68-.38"/><path class="cls-21" d="M386.71,41.12l.13,32.37h-.69l-.12-32Z"/><path class="cls-20" d="M393.7,38.66l-6.88,34.9-.67-.13L393,38.81l.73-.15"/><path class="cls-21" d="M393.7,38.66l-6.88,34.9-.67-.13L393,38.81Z"/><path class="cls-20" d="M401.44,38.29,386.79,73.63l-.64-.25,14.56-35.14.73,0"/><path class="cls-21" d="M401.44,38.29,386.79,73.63l-.64-.25,14.56-35.14Z"/><path class="cls-20" d="M409.19,40.19,386.75,73.7l-.58-.38,22.37-33.39.65.26"/><path class="cls-21" d="M409.19,40.19,386.75,73.7l-.58-.38,22.37-33.39Z"/><path class="cls-20" d="M416,44.53,386.69,73.75l-.49-.48,29.27-29.19.51.45"/><path class="cls-21" d="M416,44.53,386.69,73.75l-.49-.48,29.27-29.19Z"/><path class="cls-20" d="M421.17,50.71,386.62,73.79l-.38-.56,34.57-23.09.36.57"/><path class="cls-21" d="M421.17,50.71,386.62,73.79l-.38-.56,34.57-23.09Z"/><path class="cls-20" d="M424.68,58,386.55,73.82l-.27-.63,38.16-15.88.24.64"/><path class="cls-21" d="M424.68,58,386.55,73.82l-.27-.63,38.16-15.88Z"/><path class="cls-20" d="M426.67,65.65l-40.2,8.18-.14-.66L426.55,65l.12.67"/><path class="cls-21" d="M426.67,65.65l-40.2,8.18-.14-.66L426.55,65Z"/><path class="cls-20" d="M427.33,73.52l-40.94.31v-.68l40.93-.31c0,.23,0,.45,0,.68"/><path class="cls-21" d="M427.33,73.52l-40.94.31v-.68l40.93-.31C427.32,73.07,427.33,73.29,427.33,73.52Z"/><path class="cls-20" d="M386.5,63.2A10.4,10.4,0,0,1,397,73.51H376A10.41,10.41,0,0,1,386.5,63.2"/><path class="cls-22" d="M386.5,64.09a9.41,9.41,0,0,1,9.62,9.19H376.87a9.41,9.41,0,0,1,9.63-9.19"/><g class="cls-23"><g class="cls-24"><rect class="cls-25" x="368.3" y="72.03" width="55.51" height="46.21"/></g></g><g class="cls-26"><g class="cls-27"><rect class="cls-28" x="369.58" y="72.97" width="37.36" height="36.22"/></g><path class="cls-1" d="M398.29,109.29h0A25.88,25.88,0,0,1,377.13,97.8c-4.51-6.44-7-15-7-24.23a.35.35,0,0,1,.37-.35h27.33a.37.37,0,0,1,.36.3.36.36,0,0,1-.25.4c-3.49,1.07-5.58,2.53-6.38,4.45-1.34,3.18,1,7.47,3.43,12,3.18,5.89,6.79,12.55,3.61,18.73A.38.38,0,0,1,398.29,109.29ZM370.88,73.93c.1,16.32,8.61,34,27.19,34.64,2.83-5.8-.64-12.21-3.7-17.87-2.53-4.69-4.93-9.12-3.47-12.61.73-1.73,2.34-3.1,4.9-4.17H370.88Z"/></g><g class="cls-30"><rect class="cls-31" x="397.91" y="56.08" width="30.47" height="17.36"/></g><path class="cls-16" d="M382.25,93.81c-3.77-7.68-1.84-12.43,3.41-15.36-2.39,4.23,1.1,7.79,6.14,11.73a25.45,25.45,0,0,0-9.42,3.55Z"/><g class="cls-32"><g class="cls-33"><rect class="cls-34" x="394.1" y="72.97" width="33.84" height="29.28"/></g></g><g class="cls-35"><rect class="cls-36" x="411.78" y="65.82" width="18.89" height="7.78"/></g><rect class="cls-37" x="384.46" y="54.43" width="3.81" height="1.99"/><rect class="cls-38" x="384.46" y="54.43" width="3.81" height="1.99"/><path class="cls-16" d="M400.17,50.11a20.2,20.2,0,0,1,7.27.86c1.8.65,2.49.63,4.15,2.18l-2.52,1.58c-2.54-2.81-5.71-3.3-9-4.24-1.37-.39-1.32-.36.07-.38"/><path class="cls-16" d="M410.47,53.14c2,.14,4.37-1.4,5.35-1.58.32-.07.94.53.65.8a15.27,15.27,0,0,1-1.61.75,11.25,11.25,0,0,1,1.79-.77c.5.07.8.88.58,1,0,0-1.57.42-2,.63a10,10,0,0,1,2-.63c.27,0,.57.81.19,1-1.11.71-2.57.74-3.75,1.25.45,1.76,1.61,3.77,1.55,5.59-.09,2.84-1.66,5.49-2.14,8.15-.19,1-.05,1.31-.27.1-.62-3.46-.86-9.61-2.48-11.89a8.48,8.48,0,0,0-2-1.06,7.94,7.94,0,0,0-1.9-.25c-.45.12-1.52.36-2,.48.15-.82.8-3.16,2.37-3Z"/><path class="cls-44" d="M411.22,83.4l-.05.92,1.21.89,0-1-1.09-.81Zm-.55,16.2,0,.9.11.08H412Zm.07-1.81,0,.92,2.14,1.58,0-1ZM410.8,96l-.05.94,2.05,1.5,0-1Zm.06-1.81-.05.93,1.93,1.45v-1Zm.06-1.8-.05.95,1.82,1.32,0-1Zm.06-1.81-.05,1,1.69,1.25,0-1Zm.06-1.81-.05,1,1.56,1.13,0-1Zm.06-1.81-.05,1L412.49,89l0-1Zm.07-1.81-.07,1,1.35,1-.05-1Z"/><path class="cls-45" d="M410.57,99.7l0,.91.1.07h1.25Zm.06-1.81,0,.91,2.13,1.58,0-.94Zm.07-1.8,0,.9,2,1.5,0-.94Z"/><polygon class="cls-46" points="390.71 73.04 382.3 73.04 382.3 60.42 390.69 60.42 390.71 73.04"/><path class="cls-47" d="M388.11,60.22l-3.58,0,.11-1.82-.18-.24,0-5.16a6.46,6.46,0,0,0,.8-.85c.4-.49.66-1.13,1.17-1.13.74,0,.53.59.86,1.07a12.47,12.47,0,0,0,1.25,1.41l.08,2.93.08,1.8-.75.16Z"/><rect class="cls-37" x="384.68" y="54.52" width="3.42" height="1.59"/><path class="cls-5" d="M385.43,11.85c1.41.09,2.68,1,2.58,2.12s-.78,6.48-.78,6.48l-5.68.41,1-7.33S384,11.77,385.43,11.85Z"/><path class="cls-48" d="M384,14.22c-.18,2-.43,3.28-.61,5.23,1-.08,1.71-.09,2.48-.16.25-1.92.44-3.34.68-5.26C386,12.9,384.75,13.06,384,14.22Z"/><path class="cls-48" d="M414.34,19.45c-.17-1.95-.43-3.28-.61-5.23-.77-1.16-2.05-1.32-2.55-.19.24,1.92.44,3.34.68,5.26C412.63,19.36,413.34,19.37,414.34,19.45Z"/><path class="cls-48" d="M402.64,22.62l-.05-.71h0c-.21-2.49-.39-6.48-3.52-6.48s-3.23,4.13-3.42,6.58h0l0,.59Z"/><path class="cls-48" d="M399.09,14.46c4.07,0,4.17,4.86,4.49,7.9a.8.8,0,0,1,0,.15l0,.09h.78l0-.23h0c-.08-.81-.15-1.7-.28-2.6l1.87.05.25,2.59h0l.05.18H407v-.16h0l-.25-2.61L410,20l.14,1,1.5.14c.83.08,1.67.1,2.51.17l2.24.18-.11-1.15c1.44.11,2.89.23,4.33.38l.7,2.73.09.42.73,0-.12-.7-.61-2.4,5.26.63L427.85,24h0l.11.25h0l.08.2.9.13v-.18h0l-5.73-13,2,.31,2.13-1.79,1.52-3.24A17.1,17.1,0,0,0,429,2.89c-1.18-.24-7.73-1.56-8.24-1.49l-4.65,2.09V.8L407.85.15v0L405,2.83l-1.82-.05V0H395V2.8l-1.78.05L390.33.18,382.1.84V3.49l-4.65-2.06c-.54-.07-7,1.22-8.23,1.46a17.7,17.7,0,0,0,.1,3.76c1.91,3.91.52,2.47,3.92,5l1.58-.25-5.61,13.16c0,.1,0,.07,0,.07l0,.19.84-.12.11-.19h0l1.3-3h0l5.25-.62L376,23.7l0,.1-.05.54h.68l.34-1.33.56-2.21c1.3-.13,2.6-.25,3.9-.35l-.09,1,2.23-.18c.84-.07,1.68-.09,2.51-.17l1.51-.14.12-1c1.27-.06,2.54-.12,3.8-.16l-.19,2.05-.08,1h.73l0-.33v-.09h0l.26-2.63,1.92-.05.12-.74-6.51.27c.11-.88.23-1.76.34-2.64l7-.32a18.62,18.62,0,0,0-1.17,5.67h0l-.07.7h.76l0-.36h0C394.92,19.41,395.12,14.46,399.09,14.46ZM410,12.4q-5.24-.3-10.49-.31V9.53q6,0,12,.51l.24,1.4-.29.06A3.1,3.1,0,0,0,410,12.4Zm-.7,1.86c.06.52.13,1.05.2,1.57-1.06-.05-2.12-.1-3.18-.13L406.1,13l3.44.15-.09.19-.2.46Zm5,6.12c-.84-.07-1.67-.08-2.5-.17l-.75-.07-.1-.73c-.22-1.76-.45-3.51-.67-5.27l0-.25.11-.23a2.1,2.1,0,0,1,1.4-1.26,2.67,2.67,0,0,1,2.8,1.31l.13.19,0,.24c.16,1.75.45,3.48.61,5.23l.1,1.1Zm1.34-6.33,0-.46,0,0c1.12.1,2.24.22,3.36.35l.69,2.69c-1.24-.13-2.48-.24-3.73-.35C415.77,15.51,415.68,14.78,415.61,14.05Zm10.74,6.59-.13,0c-3.31-.44-6.63-.76-10-1l0-.32c-.07-.76-.16-1.53-.26-2.29,3.09.25,6.18.59,9.25,1Zm-1.49-3.4-.14,0-4.34-.54L419.7,14l4,.51Zm-1.55-3.53-.13,0L415,12.83a3.81,3.81,0,0,0-2.52-1.42l-.22-1.31q5,.42,9.92,1.14ZM420.77,2.37l0,1.74c-1-.14-2-.26-2.93-.44Zm-12.92-1.1V2.92l-1.67-.06Zm-17.52,0L392,2.89l-1.7.07ZM377.45,2.43l3,1.33c-1,.12-2,.25-3,.39Zm-6.28,5.85c-1.34-2.56-1.06-1.63-1.06-4.67,2.15-.41,4.29-.79,6.44-1.14V5.16c2.15-.3,4.29-.56,6.44-.79V1.64c2.15-.21,4.29-.38,6.44-.52V3.88c2.15-.1,4.29-.17,6.44-.22V.88q3.21,0,6.44,0V3.65c2.14,0,4.29.1,6.44.19V1.09c2.14.13,4.29.31,6.44.51V4.32c2.14.23,4.28.5,6.44.81V2.45q3.21.52,6.44,1.16c0,3.13.29,2.05-1.1,4.72A180.76,180.76,0,0,0,398.24,6a176.31,176.31,0,0,0-27.05,2.27Zm2.3,2.43c-.81-.61-1.33-1-2.14-1.58a169.56,169.56,0,0,1,55.47.06L425,10.76l-9.41-1.24A158.78,158.78,0,0,0,373.47,10.71Zm2.3.55q5-.72,10.1-1.16l-.22,1.31a3.7,3.7,0,0,0-3,1.49l-7.9.83Zm-1.39,3.26h0l4-.51-.7,2.75-4.56.56Zm7.11,4.76,0,.42c-3.24.26-6.49.6-9.71,1l1.11-2.62h0q4.41-.6,8.85-1C381.64,17.83,381.56,18.56,381.49,19.28Zm.61-5.23c-.07.77-.17,1.54-.27,2.31-1.1.1-2.19.2-3.29.32l.7-2.76c1-.11,1.93-.21,2.9-.3Zm5.37.09c-.22,1.76-.46,3.51-.68,5.27l-.09.73-.76.07c-.83.09-1.66.1-2.49.17l-1.12.09.1-1.1c.16-1.75.45-3.48.61-5.23l0-.24.13-.19A2.67,2.67,0,0,1,386,12.4a2.14,2.14,0,0,1,1.41,1.26l.1.23Zm.27-1.69a3.09,3.09,0,0,0-1.35-.91l.25-1.5c4-.32,8.08-.5,12.13-.51v2.56C395.09,12.11,391.41,12.22,387.74,12.45Zm4.08,3.29-3.63.17.21-1.65.07-.51-.21-.46-.06-.13c1.28-.08,2.57-.14,3.85-.19Zm.75,0,.23-2.78c4.18-.14,8.37-.16,12.55,0l.23,2.75-2.83-.05a4.88,4.88,0,0,1,.42.74l6.44.26c.12.88.23,1.76.35,2.64L404,19l.05.31c-.46-2.87-1.53-5.63-4.91-5.63a4.06,4.06,0,0,0-3.62,1.92Z"/><rect class="cls-2" x="385.6" y="64.93" width="2" height="1.93"/><path class="cls-2" d="M390.33,94.91a.64.64,0,0,0,0-1.06h-1.62v-1a.37.37,0,0,0-.38-.37h-.9a.37.37,0,0,0-.38.37v.88l0,.1h-3.7a25.78,25.78,0,0,1,8.31-3l1.57-.32-1.25-1c-2.22-1.74-6.21-4.81-6.52-7.81a4.66,4.66,0,0,1,.66-2.77l1.3-2.28L385.14,78c-6.56,3.65-6.62,9.67-3.61,15.85h-.95v-.56h-1.27v.56h-1.42c-.37.28-.37.64,0,1.06A39.31,39.31,0,0,0,390.33,94.91ZM385.5,78.64c-2.38,4.21,1,7.59,6,11.51a24.77,24.77,0,0,0-9.26,3.54C378.71,86.49,380.27,81.56,385.5,78.64Z"/><path class="cls-2" d="M406.88,54.67a.35.35,0,0,0-.37.33.35.35,0,1,0,.37-.33Z"/><path class="cls-2" d="M441.43,57.77c.62-5.56,4.56-9.38,9.11-12.27l.81-.52-15.2-19.3-.32-.06q-2.73-.51-5.46-.95c-5.54-.75-9.47-1.24-12.9-1.58l-2.82-.23h-.09l-.85-.06-.23,0h-.22c-2.1-.14-4.19-.24-6.29-.31h0l-.75,0h-.63c-7.68-.17-14.48.1-19.31.39h0c-1.68.1-12.5,1.18-14.52,1.42l-.33,0c-2.46.34-7.51,1.12-9.35,1.41L346.86,45l.81.52c4.55,2.89,8.48,6.71,9.11,12.27s-2.33,11.8-4.39,16.77C349.62,81.2,347,87.78,347,95.1a15.42,15.42,0,0,0,.71,4.62c1.51,4.88,5.26,8.8,9.22,11.91A100.54,100.54,0,0,0,372.12,121c5.4,2.86,11,5.57,16.19,8.74,3.48,2.12,8.1,5.24,10,8.9l.78,1.49.78-1.49c1.92-3.66,6.54-6.78,10-8.9,5.21-3.17,10.8-5.88,16.19-8.74a100.64,100.64,0,0,0,15.16-9.36c3.95-3.11,7.71-7,9.22-11.91a15.42,15.42,0,0,0,.71-4.62c0-7.32-2.58-13.9-5.35-20.56C443.76,69.57,440.81,63.23,441.43,57.77ZM399.1,138.23c-7.31-14-51.18-22.18-51.18-43.13s22.16-36.36.22-50.33l14.4-18.3q38.74-6.51,73.12,0l14.4,18.3c-21.93,14,.23,29.37.23,50.33S406.42,124.26,399.1,138.23Z"/><polygon class="cls-5" points="377.42 4.19 380.62 3.77 377.42 2.38 377.42 4.19"/><path class="cls-2" d="M441.74,76.15c-2.43-5.84-5.34-12.43-4.62-18.87.59-5.26,3.45-9.36,7.47-12.7l.65-.54L433.7,29.6l-.33-.06c-22.72-4.11-45.85-3.63-68.59,0l-.34.05L352.93,44l.64.54c4,3.34,6.88,7.44,7.47,12.7.73,6.44-2.19,13-4.61,18.87-2.52,6.06-5,12.27-5,18.93a11.27,11.27,0,0,0,.51,3.36c2.56,8.24,15,14.87,22.27,18.73,5.49,2.92,11.1,5.64,16.41,8.88a45.73,45.73,0,0,1,7.87,5.79l.61.59.62-.59a45.27,45.27,0,0,1,7.86-5.79c5.31-3.24,10.92-6,16.42-8.88,7.91-4.19,22.78-11.89,22.78-22.09C446.76,88.42,444.26,82.21,441.74,76.15Zm-18.18,40.26c-5.49,2.92-11.16,5.67-16.46,8.91a45.84,45.84,0,0,0-8,5.91,46.15,46.15,0,0,0-8-5.91c-5.31-3.24-11-6-16.47-8.91-6.94-3.68-19.38-10.27-21.84-18.22a10.25,10.25,0,0,1-.48-3.11c0-6.53,2.49-12.66,5-18.61s5.42-12.66,4.67-19.29c-.62-5.57-3.67-9.85-7.77-13.26l6.14-7.69,15.1,14.88c-9.57,16.13-7.29,42,7.12,53.25a26.38,26.38,0,0,0,16.58,5.53c10.46,0,18.13-5.14,23-12.69l12.79,12.62A114.42,114.42,0,0,1,423.56,116.41Zm-21.9-78a2,2,0,0,1,.31,0,25.4,25.4,0,0,1,6,1.33h0l.58.22.1,0h0l.64.26h0l.14.06.18.08.15.07A24.73,24.73,0,0,1,415,43.72l0,0c.25.2.63.51,1,.87h0l.32.28.09.09a29.07,29.07,0,0,1,4.29,5.07h0l0,0,.06.1h0l.37.57h0l-.15-.24.15.24h0l0,0,.05.07h0a35.33,35.33,0,0,1,2.84,5.59h-.22a6.87,6.87,0,0,0-6.16,3.65c0,.06-.37.65-.6,1a19.89,19.89,0,0,1-1.62,2.56,11,11,0,0,0,.28-1.39c0-.22.06-.43.07-.64h0c0-.28,0-.77,0-.77-.06-1.68-.88-3.2-1.38-4.78A11.85,11.85,0,0,0,417.77,55a1.39,1.39,0,0,0,.23-1.93,3.61,3.61,0,0,0-.12-.51,3.21,3.21,0,0,0-.24-.39,1.78,1.78,0,0,0-.5-.45,1.47,1.47,0,0,0-1.5-.88,8.09,8.09,0,0,0-1.54.61,15.47,15.47,0,0,1-1.83.78l-.57.17a15.28,15.28,0,0,0-2.16-1.3h0c-.24-.12-.5-.24-.93-.42-.22-.09-.45-.19-.68-.27a17.84,17.84,0,0,0-4.77-1h0c-.54,0-1.06,0-1.81-.07h-.87c-.58,0-1.68-.13-1.79.7s1,1,1.52,1.13l.07,0,1.59.43h0a19.39,19.39,0,0,1,4.48,1.61,2.45,2.45,0,0,0-1.79,1.55l-.16.38a8.66,8.66,0,0,0-.4,1.42h0l-.16.92,1.13-.3c.47-.13,1-.2,1.52-.31a5.92,5.92,0,0,1,1.53.29h0a9.42,9.42,0,0,1,1.14.47l.09,0a2,2,0,0,1,.76.49h0a.25.25,0,0,0,0,.07v0h0a14.19,14.19,0,0,1,1.12,4.38h0v.12h0c0,.16.05.42.09.69h0c0,.28.06.54.09.76l0,.37c-.43-.1-.84-.22-1.15-.3l-.3-.08h0l-.07,0-1.53-.37c-.26-.06-.51-.11-.77-.15A4.8,4.8,0,0,0,404.34,65c-.28.22-.56.44-.83.68a24.66,24.66,0,0,0-1.89,1.94h0l-.29.35c-.47.58-.87,1.11-1.33,1.74-.18.27-.37.54-.55.83h0c-.23.36-.43.7-.57,1a13.44,13.44,0,0,0-.64,1.33h-6.89V60.07h-2.68l-.09-1.5h.8V55.75h-.7v-.89h.55v-.93a2.1,2.1,0,0,0-1.4-1.89l0-.28a1.32,1.32,0,0,0-.91-1.24,1.57,1.57,0,0,0-.37-.05l-.32,0h0a1.31,1.31,0,0,0-1.05,1.27l0,.29a2.1,2.1,0,0,0-1.36,1.88v.93h.55v.89h-.69v2.82h.85l-.09,1.5h-2.69V72.84h-11c0-.17,0-.34,0-.52a3.29,3.29,0,0,1,0-.66c0-.68.06-.87.13-1.7h0l0-.39c0-.1,0-.2,0-.32a29.42,29.42,0,0,1,.4-3.28c0-.23.07-.44.11-.65h0c.18-1,.35-1.82.52-2.55.09-.39.17-.7.25-1l0-.11c.1-.37.21-.76.36-1.29s.34-1.14.54-1.71c.14-.41.29-.81.44-1.21l0-.11a18.23,18.23,0,0,1,1-2.48.76.76,0,0,1,.09-.18,35.22,35.22,0,0,1,2-3.64h0a20.79,20.79,0,0,1,1.86-2.67c.11-.14.22-.29.34-.43l.08-.11a19.42,19.42,0,0,1,2.37-2.56l.06-.06a24.66,24.66,0,0,1,3.78-3l.08-.06a14.23,14.23,0,0,1,1.57-.92l.41-.21a24.29,24.29,0,0,1,4.54-1.76l.09,0a19.4,19.4,0,0,1,2-.45h0a27.46,27.46,0,0,1,5.15-.48h.32c.35,0,.67,0,1.1,0h.36ZM370.77,73.57h27a18.9,18.9,0,0,0-2.45.92l-.22.11c-.22.11-.43.21-.63.33s-.46.26-.68.4h0a5.79,5.79,0,0,0-3,5,9.61,9.61,0,0,0,.41,2.72h0l.09.3v0c.1.34.23.68.36,1a34,34,0,0,0,1.51,3.31c.4.78.81,1.56,1.22,2.33,1.81,3.38,3.81,6.92,4.62,10.7a12.27,12.27,0,0,1-.28,6.74h0v0a7.22,7.22,0,0,1-.29.72c-.07.18-.16.36-.25.54h0c-.71,0-1.4-.07-2.1-.14a25.16,25.16,0,0,1-10.65-3.59c-10.43-6.5-15-19.81-14.68-31.46v0Zm14.09-11.64V60.8H386v1.13h1.15V60.8h1.15v1.13h1.15V60.8h1.15v2.47h-8.06V60.8h1.16v1.13Zm1.69-9.43h0c1.06,0,1.93.65,1.93,1.43v.2h-3.87v-.2C384.62,53.15,385.49,52.5,386.55,52.5Zm-.61-.74a.58.58,0,0,1,.59-.57.57.57,0,0,1,.59.57v.06a3.66,3.66,0,0,0-.57,0,3.05,3.05,0,0,0-.6.06Zm2,3.1v.89H387v-.89Zm-1.74,0v.89h-1v-.89Zm2.46,1.62v1.36h-4.16V56.48Zm-.7,3.59h-2.69l.09-1.5h2.5Zm2.68,4v3.48h-8.06V64Zm0,4.24v4.49h-3V70.32a1.1,1.1,0,1,0-2.16,0v2.44h-2.91V68.27Zm8.45,40.54c2.44-5.16.58-10.36-1.92-15.29-1.44-2.84-3.08-5.6-4.23-8.2-.75-1.7-1.56-3.89-1.25-5.81a5,5,0,0,1,2.22-3.39,16,16,0,0,1,3.09-1.5h0l.12,0,.44-.15c-2.91,5.46-1.82,10.67,2.68,15.37,2.57,2.68,6.22,4.12,10,5.36l-.21,6h3.42v-.6q0-2.2-.12-4.41a43.38,43.38,0,0,1,6.4,2.47,25.11,25.11,0,0,1-20.64,10.2h0ZM413.22,85l1.12,1.15.43-.41-1.25-1.28a7.23,7.23,0,0,1,2.35,2l0,.18,0,.2-.26,2.59L414.34,88l-.15-.1-.05-.21A13.89,13.89,0,0,0,413.22,85Zm.41,3.16-.54,1.24c0-1.14-.07-2.29-.1-3.44.25.66.41,1.34.62,2.09l0,0Zm.68-3.93,1.18.38.19-.56-1.44-.46a7.2,7.2,0,0,1,2,.34l.13.06.07.13,1.42,2.48-1.28-.27h0l0,0A7.58,7.58,0,0,0,414.31,84.21Zm2.27-.85-.08,0-.08,0a7.87,7.87,0,0,0-2.26-.38l1.62-.28-.1-.58-1.91.32a13,13,0,0,1,1.69-.82l.16-.07.22,0,2.76.43Zm-.4-5.37-.71.29.78-.57Zm-.19.72-.59,2.21,0,.09-.08,0a10.77,10.77,0,0,0-2.55,1.37l1.87-2.13-.45-.38-1.64,1.86a8.79,8.79,0,0,1,1-2l.09-.13.13,0Zm-5.29,20,0-.9,2.07,1.54,0,.94Zm1.28,1.88h-1.24l-.1-.08,0-.9Zm.42-14.47,0,.94-1.29-1,0-.9Zm-1.21-1.82,0-.82,0,0,1.09.81,0,.93ZM412.45,88l0,.94-1.41-1,0-.9Zm.06,1.89,0,.94L411,89.69l0-.89Zm.06,1.89,0,1L411,91.49l0-.9Zm.07,1.89,0,1-1.78-1.33,0-.89Zm.06,1.9,0,.94-1.9-1.41,0-.9Zm.06,1.88,0,1-2-1.5,0-.9Zm.22-18a9.6,9.6,0,0,0-.9,1.78V79.14h-.6v2.6a9.39,9.39,0,0,0-1.13-2.32l0-.15,1.31-2.52,1.36,2.6v.09Zm-2.15,2.2L409.2,80l-.43.41,2.15,2.19h0a10.26,10.26,0,0,0-2.81-1.58l-.1-.13-.61-2.28,2.23.9.14.06.08.11A8.64,8.64,0,0,1,410.83,81.7Zm-3.64-3.77-.07-.27.73.53Zm.36,3.65.17,0,.15,0,1.68.8-1.68-.28-.1.58,1.62.28a8.4,8.4,0,0,0-2.23.38H407L405,82Zm-.37,2.52.09-.12.11-.07a7.9,7.9,0,0,1,2-.34l-1.5.49.19.56,1.22-.4a8.47,8.47,0,0,0-2.14,2l-.06.06,0,.06-1.28.27Zm.54,2.33a7.71,7.71,0,0,1,2.11-1.85l-1.1,1.08.43.42,1.38-1.36a11.2,11.2,0,0,0-1.15,3.06h0l0,.13-.1.1-1.3,1.35-.25-2.59v-.19Zm2.27,1.4a15.67,15.67,0,0,1,.54-1.75l-.1,3.17-.49-1.11V88Zm3.3,7.54-.15-4.6.53-1.21,0,1.69h.6l0-1.6.58,1.51.56-.2-.61-1.61,1.15,1.2.43-.41-.19-.2.17-1.74.45,1.69.58-.15-.44-1.65,1,1.39.49-.34-1.08-1.54,1.5,1,.32-.49-1.41-.9.48.1.17.3.35-.19.63.13.13-.58-.18,0,.36-.35-1.44-1.49,1.77,1,.3-.5-1.94-1.12,2.17.48.13-.58L418.87,84l1.83-.07,0-.59-2,.07,2-.63-.19-.56-1.94.63,1-.66h0l.74-.49-.34-.49-.54.37-1.46-.23,1.9-.21-.07-.58-2.15.23,1.94-.83-.24-.54-1.95.84,1.61-1.37-.39-.45-1.6,1.37L418.05,78l-.51-.32,0,0-.08-.19-.57.23.08-.3-.21-.06.39-.28-.35-.48L414.91,78l1.38-1.77-.47-.36-1.51,1.94.83-2.27-.56-.2-.7,1.91.18-2-.59-.05-.2,2.23-.44-2.22-.59.12.44,2.19-.7-1.34.26-.5-.53-.27-.07.12,0,0-.53.27.22.42-.66,1.26.44-2.2-.59-.11-.44,2.21-.2-2.22-.59,0,.18,2-.7-1.91-.56.2.82,2.26-1.5-1.93-.47.35,1.38,1.78-1.87-1.36-.35.47.49.36-.26.07.07.24-.61-.25-.12.28-.43.27,1.14,1.81-1.6-1.37-.39.45,1.61,1.37-2-.84-.24.54,1.93.83-2.14-.23-.07.58,1.9.21-1.31.2-.51-.34-.33.49.52.35,0,.15.15,0,1,.69-1.95-.63-.18.56,2,.63-2.05-.07,0,.59,1.84.07-1.79.39.13.58,2.17-.48-1.94,1.12.3.5,1.77-1-1.45,1.49.36.35-.17,0,.12.58.64-.13.35.19.17-.3.47-.1-1.4.9.32.49,1.5-1-1.09,1.54.49.34,1-1.39-.44,1.65.57.15.46-1.69.17,1.74-.2.2.44.41,1.15-1.2L408.17,91l.56.2.58-1.51,0,1.6h.6l0-1.69.47,1.07-.13,3.77c-3.63-1.2-7.08-2.58-9.49-5.1-5.52-5.76-4.59-11-2.3-15h0v0h.05l.1-.17h0v0h0l.09-.16h0l.1-.14h1.36l27.11.32h0c-.05,8.8-2.44,17.57-7.2,24.12A45.32,45.32,0,0,0,413.29,95.37ZM418,85.64l1.18,1.21-.55-.11Zm-1.55-6.21.27-1,.49-.2Zm-9.43,0-.81-1.28.52.21Zm-1.37,6.21-.63,1.1-.54.11ZM427.35,73H412.29c5.07-3.14,6.58-7.44,9.33-7.12,1.56.19,3.79.73,5.25.92h0a48.39,48.39,0,0,1,.48,6.14Zm-.94-7c-.73-.12-1.45-.27-2.17-.41s-1.69-.33-2.53-.43a3.15,3.15,0,0,0-1,0c-1.53.29-2.83,1.78-3.85,2.86a24.38,24.38,0,0,1-5,4.33l-1.17.63-11.67-.14c1.51-3.37,6.08-8.73,8.49-8.34,1.18.18,2.75.66,4,1,.13,1.37.27,2.76.5,4.1.09.48.06,1.44.89,1.42s.72-1,.81-1.49a31.35,31.35,0,0,1,1.33-4.37c3-1.93,3.08-7.83,8.82-7.89a2.32,2.32,0,0,1,.52,0h0A43.63,43.63,0,0,1,426.76,66ZM407,54l3.44-.7c2,.14,4.42-1.53,5.39-1.71.21,0,.54.18.66.41l-2,.95.25.53,2.2-1a1,1,0,0,1,.37.8l-2.36.56.14.58,2.49-.59a.57.57,0,0,1-.14.62c-1.11.7-2.57.74-3.74,1.25.45,1.75,1.6,3.75,1.54,5.56,0,.2,0,.38,0,.57l-1.29-2.67-.53.25L415,62.82a17.8,17.8,0,0,1-.5,1.87l-1.31-4.45-.58.17,1.56,5.24A25.61,25.61,0,0,0,413,69.36c-.18,1,0,1.27-.22.07-.62-3.45-.65-9.55-2.27-11.82a11.39,11.39,0,0,0-2.22-1,6.92,6.92,0,0,0-1.88-.36c-.44.12-1.28.3-1.73.42C404.87,55.8,405.4,53.83,407,54Zm-6.53-3.5c-1.36-.39-1.31-.36.08-.38a19.69,19.69,0,0,1,7.16,1,14.32,14.32,0,0,1,2.94,1.45h-.26l-2.81.57C405.39,51.7,402.94,51.25,400.43,50.52Zm35.46,58.61-13.14-13c9.7-16.2,7.26-42.35-7.41-53.58a26.23,26.23,0,0,0-16.26-5.34c-10.47,0-18.16,5.21-23.07,12.83L361,35.3l3.89-4.87c22.67-3.66,45.65-4.13,68.29,0L444,43.92c-4.11,3.41-7.15,7.69-7.78,13.26-.75,6.63,2.18,13.29,4.68,19.29s4.95,12.08,4.95,18.61C445.88,100.51,441.26,105.28,435.89,109.13Z"/><rect class="cls-49" x="324.65" y="22.42" width="1.62" height="89.74"/><path class="cls-2" d="M2.73,89.72v-1.3l8.55-10.6h1.31c3.35,3.25,10.23,6.88,15.9,6.88,4.47,0,7.35-1.4,7.35-3.72,0-3.26-4.09-3.54-10.14-5.21C16.4,73.17,5.42,68,5.42,56.05c0-11.07,10-18.7,24.28-18.7,10.23,0,19.54,3.91,24.09,9v1.3L45.14,57.91h-1.3c-2.6-2.42-7.72-6.14-13.77-6.14-3.53,0-5.86,1.3-5.86,3.44,0,3,4.19,4.37,8.28,5.58,10.42,3,22.23,6.51,22.23,20.19,0,12.56-11.72,19.07-25.2,19.07C18.08,100.05,8.21,95.77,2.73,89.72Z"/><path class="cls-2" d="M82.35,53.35v8.37h21v14h-21v8.37h27.91V98.93H63.93V38.47H110V53.35Z"/><path class="cls-2" d="M152,98.93H133.61V53.35H115.19V38.47h55.25V53.35H152Z"/><path class="cls-2" d="M195.09,38.47V71.58c0,7.26,4.47,12.09,11.07,12.09s11.07-4.83,11.07-12.09V38.47h18.14v32c0,17.76-11.72,29.58-29.21,29.58-17.67,0-29.48-11.82-29.48-29.58v-32Z"/><path class="cls-2" d="M299.93,97.53l-.84,1.4H280.77L269.33,77.72H265V98.93H246.54V38.47h27.72c15.9,0,24.46,7.81,24.46,20.18,0,7.91-4.47,13.4-11.07,16.47Zm-35-31.9h8.56c3.44,0,6.42-1.95,6.42-5.95a6.07,6.07,0,0,0-6.42-6.33H265Z"/></svg>